<svg xmlns="http://www.w3.org/2000/svg" width="49" height="52" viewBox="0 0 49 52" fill="none"><path fill-rule="evenodd" clip-rule="evenodd" d="M2.2876 0.882812H47.0234C47.0234 19.8543 47.0234 35.4737 47.0234 50.3939H2.2876V0.882812Z" fill="black"></path><path fill-rule="evenodd" clip-rule="evenodd" d="M25.6123 43.2411H30.016V7.11137H25.6123V43.2411ZM17.3953 41.2801C17.3928 42.3592 16.5348 43.2261 15.4765 43.2288H6.79541L6.79815 7.11134H15.4871C16.5348 7.11312 17.3928 7.9807 17.3953 9.05986V21.7197C17.3953 22.7404 16.568 23.5649 15.5596 23.5649L15.367 23.5638C16.4824 23.5638 17.3953 24.4811 17.3953 25.6083V26.4023V41.28V41.2801ZM11.1996 11.5709H13.0073V21.8631H11.1996V11.5709ZM11.1996 26.2857H13.0073V38.7593H11.1996V26.2857ZM42.5168 43.2405V7.10938H38.1121V13.3981H33.8263C32.7774 13.3999 31.9258 14.2678 31.9231 15.3469L31.9179 41.28C31.9206 42.3592 32.7784 43.226 33.8368 43.2288L42.5168 43.2403V43.2405ZM38.1139 17.8118H36.3062V38.7594H38.1139V17.8118ZM19.3027 11.5709H23.7062V7.11088H19.3027V11.5709ZM19.3027 43.2411H23.7062V13.3999H19.3027V43.2411Z" fill="white"></path></svg>