<svg xmlns="http://www.w3.org/2000/svg" width="114" height="36" viewBox="0 0 114 36" fill="none"><path d="M33.4719 4.27497V25.3031C33.4719 27.6637 31.3947 29.5766 28.8326 29.5768H10.6748L10.6536 29.5979C8.2415 30.1988 0.00402024 38.6465 0 35.1589L0.0446456 25.6582C0.0338544 25.5406 0.0283506 25.4218 0.0283506 25.3027V4.27455C0.0283506 1.91397 2.10534 0.000423431 4.66772 0H28.8336C31.3949 0.00063324 33.4719 1.91439 33.4719 4.27497Z" fill="#15E4C9"></path><path d="M46.2291 8.70322C46.1796 8.52596 45.9953 8.42227 45.8173 8.4718C45.7046 8.50299 45.6163 8.59088 45.585 8.70322C45.4807 9.02674 44.8152 11.106 44.347 12.5581C43.8815 14.0029 43.4888 15.2806 43.014 16.7224C42.9321 16.8976 43.0085 17.1056 43.1843 17.1872C43.2207 17.204 43.2598 17.2146 43.2998 17.2184C43.4956 17.2184 43.5654 17.2196 43.7611 17.2196C45.3362 17.2196 46.7249 17.222 48.2997 17.2196C48.6474 17.2196 48.8556 16.995 48.7669 16.7224C48.4891 15.8693 46.3004 9.02822 46.2291 8.70322ZM47.1489 3.00052C47.625 3.14405 47.8448 3.49856 47.997 3.94559C49.4997 8.3622 51.0079 12.7769 52.5214 17.1897C53.2459 19.3094 53.9687 21.4295 54.6896 23.5502C54.9224 24.2329 54.5908 24.7231 53.8644 24.744C53.306 24.76 52.7463 24.7512 52.1875 24.748C51.5606 24.7442 51.2648 24.5309 51.071 23.9412C50.71 22.8418 50.4961 22.2022 50.1469 21.0992C50.0213 20.7586 49.9047 20.3898 49.2126 20.394C46.6874 20.3986 45.0304 20.3997 42.5051 20.394C42.0398 20.3284 41.6052 20.6391 41.5186 21.0992C41.174 22.2038 40.996 22.8621 40.6414 23.9631C40.5343 24.4377 40.1001 24.7668 39.6124 24.7429C39.0538 24.7585 38.4942 24.7541 37.9356 24.7448C37.5318 24.7644 37.1626 24.5185 37.027 24.1391V23.7496C37.2223 23.2031 37.4241 22.6585 37.612 22.1094C38.7265 18.8537 39.8392 15.5974 40.9505 12.3406C41.9025 9.54733 42.8502 6.75279 43.7935 3.95655C43.9439 3.50825 44.1663 3.15859 44.632 3.00136L47.1489 3.00052Z" fill="#303030"></path><path d="M109.727 23.9532C109.302 24.0936 107.447 24.7155 106.123 24.5602C105.578 24.5056 105.041 24.3901 104.522 24.2158C102.757 23.5867 101.813 22.2521 101.399 20.4871C101.145 19.4006 101.186 18.2964 101.184 17.1948C101.18 14.6093 101.179 12.0232 101.181 9.43625C101.179 9.29757 101.193 9.1591 101.223 9.02378C101.293 8.6638 101.603 8.39928 101.971 8.38537C102.52 8.3643 103.071 8.35861 103.62 8.37715C104.185 8.39591 104.501 8.73925 104.512 9.30452C104.519 9.62067 104.513 9.93493 104.513 10.25C104.513 12.9938 104.501 15.7375 104.53 18.4811C104.546 19.0257 104.641 19.5652 104.812 20.0829C105.094 20.9845 105.774 21.4465 106.702 21.5945C107.236 21.6841 107.781 21.6723 108.31 21.5591C109.27 21.3888 110.014 20.6269 110.158 19.6662C110.287 18.9941 110.352 18.3112 110.353 17.627C110.372 14.9113 110.358 12.1952 110.358 9.47925C110.357 9.34963 110.366 9.22001 110.383 9.09165C110.403 8.71143 110.708 8.4075 111.09 8.38832C111.703 8.3605 112.318 8.36345 112.932 8.38832C113.282 8.40666 113.571 8.66717 113.625 9.0124C113.661 9.1846 113.679 9.35995 113.679 9.53573C113.683 14.365 113.684 19.1943 113.681 24.0236C113.708 24.952 113.553 25.8768 113.224 26.746C112.542 28.4138 111.286 29.4439 109.566 29.897C107.664 30.4231 105.639 30.2873 103.825 29.5119C103.172 29.2002 102.554 28.821 101.981 28.3807C101.528 28.0623 101.466 27.6047 101.756 27.1301C101.975 26.7743 102.215 26.4318 102.474 26.1041C102.787 25.7053 103.148 25.6566 103.577 25.9354C103.85 26.1127 104.097 26.3287 104.375 26.4961C105.321 27.0677 106.428 27.3168 107.529 27.2057C107.742 27.1971 107.955 27.175 108.166 27.1391C109.36 26.8784 110.069 25.8998 110.367 24.8694C110.602 24.008 110.152 23.8139 109.727 23.9532Z" fill="#303030"></path><path d="M92.7192 22.1251C93.3669 21.9737 93.9499 21.5488 94.3125 20.9979C94.7503 20.3331 94.8967 19.5171 94.8426 18.7328C94.7901 17.9749 94.3549 17.6547 93.5982 17.6467C92.9126 17.6398 92.2601 17.6111 91.2478 17.6467C90.2576 17.6526 89.3983 18.2681 89.1078 19.2294C88.8896 19.9514 89.0574 20.7772 89.5403 21.3581C90.2521 22.2144 91.4146 22.2859 92.4484 22.1717C92.5396 22.1615 92.63 22.1459 92.7192 22.1251ZM98.1658 16.9063C98.1428 17.7569 98.176 18.8926 98.0681 20.0145C97.8514 22.265 96.6024 24.2317 93.9566 24.853C92.1441 25.2783 90.3302 25.2613 88.585 24.5369C86.8397 23.8125 85.9473 22.4431 85.7384 20.6014C85.5905 19.5396 85.7575 18.458 86.2189 17.4897C86.9386 16.0375 88.2007 15.3087 89.7347 14.9649C90.6971 14.7491 91.6753 14.7702 92.6524 14.767C93.2294 14.7651 93.3259 14.7786 93.9033 14.767C94.4488 14.7755 94.9071 14.3602 94.9501 13.8186C95.0116 13.329 94.9308 12.832 94.7173 12.3866C94.4979 11.8466 93.3661 11.047 92.0271 10.9507C90.7872 10.8442 89.5568 11.2388 88.612 12.0456C88.0945 12.4733 87.6372 12.43 87.2236 11.9095C87.016 11.6479 86.8228 11.3752 86.6294 11.1026C86.1999 10.4969 86.2638 10.0564 86.8586 9.59693C87.8596 8.79897 89.0568 8.28238 90.3259 8.10028C91.8469 7.89394 93.3542 7.92344 94.8009 8.51781C96.6115 9.26181 97.5801 10.6691 97.9733 12.5278C98.2602 13.8852 98.0928 15.26 98.1658 16.9063Z" fill="#303030"></path><path d="M69.5566 18.4389V23.5563C69.6028 24.1667 69.1432 24.6987 68.5302 24.7444C68.4873 24.7478 68.4441 24.7484 68.4011 24.7468C68.0837 24.756 67.7674 24.7514 67.4509 24.7489C66.6982 24.7428 66.2522 24.3164 66.2291 23.5658C66.2162 23.1584 66.2279 22.7502 66.2279 22.3434C66.2279 19.7288 66.2285 17.1145 66.2294 14.5004C66.2492 13.8512 66.1625 13.2035 65.9723 12.5824C65.6606 11.654 65.0184 11.1039 64.0447 11.013C63.4829 10.9481 62.9146 10.9605 62.3562 11.0497C61.3137 11.2434 60.6499 12.0424 60.5134 13.1593C60.4485 13.6731 60.4138 14.1903 60.4097 14.7082C60.4 17.582 60.4055 20.4558 60.4042 23.33C60.4125 23.5062 60.4034 23.6826 60.3769 23.8569C60.2716 24.3792 59.8082 24.7527 59.2735 24.7465C58.9104 24.7592 58.5465 24.76 58.1836 24.7465C57.5981 24.7632 57.11 24.3039 57.0932 23.7207C57.0924 23.6898 57.0928 23.6586 57.0947 23.6276C57.0916 20.4107 57.0736 17.1935 57.1007 13.977C57.1169 11.968 58.0338 10.3849 59.6199 9.18421C60.6347 8.41154 61.8775 7.99485 63.1547 7.99865C64.1519 7.95734 65.1483 8.10234 66.092 8.42608C67.9625 9.12646 69.0065 10.5146 69.3812 12.4203C69.4921 13.0492 69.548 13.6866 69.5475 14.325C69.5715 15.6967 69.5547 17.069 69.5547 18.4411L69.5566 18.4389Z" fill="#303030"></path><path d="M78.1258 25.1039C76.7627 25.1347 75.4081 24.8807 74.1496 24.3587C73.4866 24.0607 72.8747 23.6617 72.335 23.1761C71.9903 22.8721 71.9386 22.3553 72.216 21.9897C72.4462 21.6638 72.6868 21.3445 72.9382 21.0347C73.3102 20.5765 73.7714 20.509 74.2327 20.8789C75.0634 21.5631 76.078 21.989 77.1499 22.1033C77.8971 22.181 78.6541 22.2133 79.3909 21.972C80.7349 21.5319 80.9059 20.3586 80.6676 19.4628C80.5553 19.0484 80.2409 18.7184 79.8312 18.585C79.1962 18.3518 78.5441 18.1672 77.8808 18.0327C76.8651 17.8431 75.8434 17.6968 74.887 17.2828C73.5395 16.7001 72.6496 15.7333 72.4041 14.2619C72.2074 13.0816 72.2328 11.9169 72.7835 10.8153C73.5563 9.26972 74.892 8.47577 76.5257 8.1533C78.1032 7.82366 79.7413 7.93241 81.2607 8.46776C81.8769 8.70087 82.4672 8.99615 83.0227 9.34918C83.5586 9.67692 83.6213 10.1975 83.2717 10.716C83.0749 11.0083 82.8843 11.3061 82.6716 11.5867C82.3253 12.0445 81.9069 12.133 81.4294 11.8099C80.2381 11.0035 78.9258 10.8064 77.5344 11.0128C76.9908 11.0629 76.4817 11.3011 76.0956 11.6855C75.1722 12.6837 75.5357 14.1064 76.8609 14.5125C77.6497 14.7244 78.4495 14.8934 79.2568 15.0184C80.093 15.152 80.9074 15.3977 81.6774 15.7489C82.9865 16.343 83.8739 17.592 84.0013 19.0196C84.1282 20.0312 84.1208 21.0355 83.7404 22.0015C83.1297 23.551 81.9363 24.4476 80.3617 24.8451C79.6275 25.0081 78.8782 25.0949 78.1258 25.1039Z" fill="#303030"></path><path d="M9.23084 15.374V16.7995C9.23084 18.2689 9.22957 19.5316 9.23084 21.0009C9.23084 21.4662 9.60028 21.7023 10.2351 21.7139C11.3313 21.7002 11.8561 21.7514 12.9462 21.6553C13.9756 21.6108 14.8731 20.9117 15.2066 19.8952C15.4157 19.2905 15.5187 18.6512 15.5109 18.0084C15.5238 16.3189 15.5285 14.6294 15.5094 12.9403C15.5073 12.4138 15.4538 11.8886 15.3492 11.3735C15.1118 10.2531 14.4699 9.48629 13.3742 9.20913C12.9978 9.11408 12.6129 9.06012 12.2259 9.0479C11.4246 9.02324 11.1174 9.0479 10.3155 9.0479C9.55585 9.04621 9.22344 9.43866 9.23084 10.009C9.23063 11.9179 9.23105 13.4651 9.23105 15.3738L9.23084 15.374ZM6.09315 15.4514C6.09315 12.7846 6.08934 10.1175 6.09971 7.45071C6.10098 7.19695 6.15218 6.94614 6.25078 6.71408C6.39974 6.32459 6.7658 6.07335 7.16761 6.08431C9.10135 6.08431 11.0357 6.05966 12.9688 6.09823C14.1762 6.10434 15.3554 6.47929 16.3604 7.17693C17.6784 8.10388 18.3111 9.47217 18.5419 11.0651C18.6149 11.5693 18.6532 12.0781 18.6566 12.5879C18.6689 14.4977 18.6736 16.4079 18.6547 18.3178C18.6782 19.4924 18.4355 20.6561 17.9463 21.7143C17.3824 22.8739 16.415 23.7653 15.242 24.2054C14.3378 24.5542 13.3806 24.7302 12.4166 24.7251C10.7109 24.7413 9.00507 24.7318 7.29922 24.7293C6.67883 24.7767 6.13906 24.2907 6.09357 23.6437C6.08976 23.5889 6.08955 23.5336 6.09315 23.4788V15.4514Z" fill="white"></path><path d="M20.911 19.2495C20.911 17.9739 20.9051 16.6982 20.9131 15.4226C20.8992 14.4961 21.0862 13.5784 21.4603 12.7377C22.0923 11.381 23.1596 10.6393 24.5707 10.4068C25.8398 10.1572 27.1521 10.3313 28.321 10.9046C28.5105 11.0007 28.6919 11.1135 28.8631 11.2416C29.282 11.5382 29.4068 12.1235 29.1479 12.5771C29.0071 12.8475 28.8614 13.1153 28.7063 13.3769C28.3728 13.9384 27.8571 14.0807 27.3165 13.7331C26.7573 13.3773 26.0982 13.2321 25.4488 13.3219C24.7372 13.3976 24.1822 13.9989 24.1369 14.7435C24.0849 15.2407 24.0591 15.7407 24.0599 16.2408C24.0523 18.5799 24.0578 20.9211 24.0544 23.2614C24.0618 23.4543 24.044 23.6471 24.0017 23.8351C23.9006 24.3083 23.5189 24.6599 23.0561 24.706C22.6619 24.7539 22.2637 24.7526 21.8699 24.7022C21.3063 24.6284 20.8909 24.1163 20.9148 23.5242C20.9025 22.3545 20.9091 21.1849 20.908 20.0139V19.2486L20.911 19.2495Z" fill="white"></path></svg>