<svg xmlns="http://www.w3.org/2000/svg" width="25" height="25" viewBox="0 0 25 25" fill="none"><path d="M23.2265 12.5283C23.2265 11.7483 23.1565 10.9983 23.0265 10.2783H12.6665V14.5383H18.5865C18.3265 15.9083 17.5465 17.0683 16.3765 17.8483V20.6183H19.9465C22.0265 18.6983 23.2265 15.8783 23.2265 12.5283Z" fill="#4285F4"></path><path d="M12.6662 23.2799C15.6362 23.2799 18.1262 22.2999 19.9462 20.6199L16.3762 17.8499C15.3962 18.5099 14.1462 18.9099 12.6662 18.9099C9.80619 18.9099 7.37619 16.9799 6.50619 14.3799H2.84619V17.2199C4.65619 20.8099 8.36619 23.2799 12.6662 23.2799Z" fill="#34A853"></path><path d="M6.50846 14.3686C6.28846 13.7086 6.15846 13.0086 6.15846 12.2786C6.15846 11.5486 6.28846 10.8486 6.50846 10.1886V7.34863H2.84846C2.09846 8.82863 1.66846 10.4986 1.66846 12.2786C1.66846 14.0586 2.09846 15.7286 2.84846 17.2086L5.69846 14.9886L6.50846 14.3686Z" fill="#FBBC05"></path><path d="M12.6662 5.65832C14.2862 5.65832 15.7262 6.21832 16.8762 7.29832L20.0262 4.14832C18.1162 2.36832 15.6362 1.27832 12.6662 1.27832C8.36619 1.27832 4.65619 3.74832 2.84619 7.34832L6.50619 10.1883C7.37619 7.58832 9.80619 5.65832 12.6662 5.65832Z" fill="#EA4335"></path></svg>