<svg xmlns="http://www.w3.org/2000/svg" width="169" height="25" viewBox="0 0 169 25" fill="none"><path d="M163.729 2.03669C162.603 5.84921 160.427 7.67145 157.713 7.67145H155.164V2.03669H154.403C153.243 5.31856 151.62 7.14211 148.906 8.13594V8.93126H151.356V19.5722C151.356 22.7879 152.383 24.1152 154.932 24.1152C156.719 24.1152 158.078 23.1862 159.038 21.3296L159.236 20.9326L158.674 20.6335C158.045 21.4632 157.449 21.8602 156.819 21.8602C155.561 21.8602 155.164 21.0649 155.164 18.6445V8.93126H160.717V19.5722C160.717 22.821 161.743 24.1152 164.292 24.1152C166.279 24.1152 167.802 22.9533 168.828 20.6335L168.266 20.3344C167.438 21.4632 166.875 21.8602 166.146 21.8602C164.922 21.8602 164.492 20.9988 164.492 18.6445V8.93126H168.266V7.67145H164.492V2.03669H163.729ZM45.1759 19.9044C45.1759 22.4888 45.573 23.1531 47.1612 23.1862V23.783H39.6793V23.1862C41.0359 23.1532 41.3681 22.4888 41.3681 19.9044V12.4116C41.3681 10.2255 41.0359 9.52808 39.9771 9.52808C39.7786 9.52808 39.6131 9.56111 39.2822 9.6935L39.1168 9.098L44.4466 7.17519H45.1759V10.7217C46.9309 8.36752 48.7507 7.17519 50.5401 7.17519C53.5194 7.17519 54.8443 9.098 54.8443 13.3737V20.1373C54.8443 22.4571 55.3075 23.1531 56.8957 23.1862V23.783H49.0829V23.1862C50.7056 22.9877 51.0696 22.3909 51.0696 19.9374V13.7045C51.0696 10.7548 50.5057 9.72658 48.8513 9.72658C47.6257 9.72658 46.4332 10.4571 45.1759 11.9485V19.9044ZM94.5328 0.279297H93.7705L88.34 2.33444L88.5055 2.89818L88.8046 2.83201C89.0362 2.76584 89.334 2.73281 89.4664 2.73281C90.3941 2.73281 90.7237 3.49505 90.7237 5.55019V20.4351C90.7237 22.4902 90.2274 23.1532 88.7053 23.1863V23.7831H96.5856V23.1863C95.0609 23.1532 94.5328 22.424 94.5328 20.4351V0.279297ZM107.49 7.34061V12.6776H106.795C106.067 9.56117 105.04 8.43369 102.954 8.43369C101.53 8.43369 100.604 9.13108 100.604 10.2242C100.604 11.3186 101.332 12.0477 103.947 13.6053C107.656 15.8272 108.683 17.0539 108.683 19.2083C108.683 22.0918 106.231 24.2793 102.921 24.2793C102.06 24.2793 101.663 24.2131 99.8746 23.783C99.7091 23.7169 99.5768 23.7169 99.3782 23.7169C99.1466 23.7169 98.9481 23.783 98.6172 24.0146H97.921V18.0808H98.4835C99.279 21.495 100.604 22.9877 102.854 22.9877C104.311 22.9877 105.338 22.0587 105.338 20.7658C105.338 19.4399 105.338 19.4399 101.663 17.0208C98.4187 14.8651 97.8218 14.1029 97.8218 11.9815C97.8218 9.13108 99.9407 7.17519 103.054 7.17519C103.682 7.17519 103.98 7.20823 104.741 7.43986C105.537 7.63836 105.801 7.70453 106.067 7.70453C106.365 7.70453 106.562 7.6066 106.895 7.34061H107.49ZM131.553 0.279297H130.792L125.395 2.33444L125.527 2.89818C126.123 2.76584 126.288 2.73276 126.487 2.73276C127.381 2.73276 127.779 3.59425 127.779 5.55014V20.435C127.779 22.424 127.216 23.1531 125.726 23.1862V23.783H133.606V23.1862C132.081 23.1532 131.553 22.4571 131.553 20.435V0.279297ZM143.486 14.3014C138.949 16.3578 138.155 17.0539 138.155 18.9423C138.155 20.5012 139.181 21.5612 140.605 21.5612C141.599 21.5612 142.36 21.1642 143.486 20.1029V14.3014ZM143.321 21.4632L142.924 21.8602C141.102 23.5845 139.811 24.2793 138.387 24.2793C136.102 24.2793 134.413 22.4888 134.413 20.1029C134.413 17.2524 136.269 15.8272 143.486 13.1421V11.9815C143.486 9.26342 142.79 8.23519 140.869 8.23519C139.379 8.23519 138.486 9.06492 138.486 10.4571C138.486 10.5563 138.486 10.7548 138.519 10.9877V11.484C138.519 12.4791 137.824 13.1421 136.797 13.1421C135.771 13.1421 135.043 12.3799 135.043 11.3186C135.043 8.96434 137.857 7.17519 141.632 7.17519C145.936 7.17519 147.259 8.43369 147.259 12.5122V19.7389C147.259 22.4571 147.691 23.1531 149.313 23.1862V23.783H145.274C143.684 23.783 143.486 23.5845 143.486 22.0587V21.3296L143.321 21.4632ZM114.764 11.484C115.659 10.5894 116.552 10.158 117.546 10.158C119.93 10.158 121.586 12.7438 121.586 16.4901C121.586 20.2683 120.029 22.9202 117.811 22.9202C116.817 22.9202 116.023 22.5563 114.764 21.5625V11.484ZM114.764 0.279297H114.069L108.639 2.26827L108.837 2.86509C109.135 2.7659 109.335 2.73276 109.567 2.73276C110.66 2.73276 111.023 3.42883 111.023 5.55014V22.3909C113.54 23.783 115.096 24.2793 117.016 24.2793C121.817 24.2793 125.36 20.3688 125.36 15.0636C125.36 10.4888 122.944 7.17519 119.665 7.17519C118.01 7.17519 116.387 8.06977 115.295 9.59425L114.93 10.0918L114.764 10.3234V0.279297ZM84.1802 12.5784C84.0134 9.92641 82.9877 8.53294 81.1996 8.53294C79.3454 8.53294 78.088 10.0257 77.8895 12.5784H84.1802ZM88.119 18.1483C86.8947 22.424 84.9081 24.2793 81.5318 24.2793C77.4263 24.2793 74.6773 20.9657 74.6773 16.0587C74.6773 10.8871 77.7571 7.17519 82.0612 7.17519C85.7684 7.17519 87.8887 9.46192 88.119 13.8051H77.8233C78.1542 18.3468 80.1408 21.0649 83.087 21.0649C85.0418 21.0649 86.4646 20.0698 87.5896 17.8823L88.119 18.1483ZM68.3072 20.6335C67.116 21.4632 66.4211 21.761 65.6588 21.761C63.242 21.761 61.5532 18.8444 61.5532 14.6666C61.5532 10.821 62.8119 8.43369 64.7641 8.43369C67.1491 8.43369 68.3072 10.158 68.3072 13.7376V20.6335ZM72.1149 0.279297H71.3208L65.9566 2.30135L66.1551 2.86509C66.6197 2.73276 66.7507 2.69968 66.9836 2.69968C68.0094 2.69968 68.3072 3.32958 68.3072 5.58322V8.46809C67.0167 7.47295 66.1551 7.17519 64.6979 7.17519C60.6598 7.17519 57.4807 11.087 57.4807 16.1249C57.4807 20.9326 59.9981 24.2793 63.606 24.2793C65.3279 24.2793 66.0241 23.9154 68.3072 21.9595C68.3072 23.6176 68.4739 23.783 70.0952 23.783H74.1677V23.1862C72.381 23.1532 72.1149 22.6556 72.1149 19.4068V0.279297ZM33.1331 14.3014C28.7959 16.1911 27.7702 17.087 27.7702 18.9423C27.7702 20.4668 28.829 21.5612 30.2531 21.5612C31.1796 21.5612 31.9751 21.1642 33.1331 20.1029V14.3014ZM33.1331 21.3296C32.9346 21.495 32.9015 21.5281 32.5376 21.8602C30.584 23.6825 29.459 24.2793 28.0018 24.2793C25.7492 24.2793 24.0286 22.4571 24.0286 20.0367C24.0286 17.2524 26.0483 15.761 33.1331 13.1421V11.9815C33.1331 9.2965 32.4052 8.23519 30.5179 8.23519C29.0276 8.23519 28.1329 9.06492 28.1329 10.4571C28.1329 10.5894 28.1329 10.7548 28.1659 10.9877V11.484C28.1659 12.446 27.4724 13.1421 26.4453 13.1421C25.4183 13.1421 24.6903 12.4116 24.6903 11.3516C24.6903 8.93126 27.5041 7.17519 31.2788 7.17519C35.5498 7.17519 36.9409 8.46809 36.9409 12.5122V19.7389C36.9409 22.5894 37.2056 23.1531 38.5966 23.1862V23.783H34.9212C33.3316 23.783 33.1331 23.5845 33.1331 22.0587L33.1331 21.3296ZM16.9186 12.4791V20.0036C16.9186 22.4902 16.4567 23.0208 14.1379 23.087V23.783H23.8724V23.087C21.4888 22.9878 21.0917 22.4901 21.0917 19.506V4.19107C21.0917 1.7707 21.588 1.10903 23.4092 1.00845L23.8724 0.975424V0.27935H14.1379V0.975424C16.4898 1.076 16.9186 1.53916 16.9186 3.82721V11.0195H6.9538V3.99263C6.9538 1.60533 7.54939 0.942341 9.73453 0.975424V0.27935H0V0.975424C2.11896 0.942393 2.78205 1.6715 2.78205 3.99263V19.5061C2.78205 22.5233 2.38499 23.0209 0 23.087V23.7831H9.73453V23.087C7.41704 23.1532 6.9538 22.6225 6.9538 19.9375V12.4792L16.9186 12.4791Z" fill="black"></path></svg>