<svg xmlns="http://www.w3.org/2000/svg" width="49" height="49" viewBox="0 0 49 49" fill="none"><rect x="0.666626" y="0.279297" width="48" height="48" rx="12" fill="#FCEEF0"></rect><path d="M21.1666 20.7793L28.1666 27.7793M17.1667 24.7793L25.1667 16.7793C26.0949 15.8511 27.3539 15.3296 28.6667 15.3296C29.9794 15.3296 31.2384 15.8511 32.1667 16.7793C33.0949 17.7076 33.6164 18.9666 33.6164 20.2793C33.6164 21.5921 33.0949 22.8511 32.1667 23.7793L24.1667 31.7793C23.2384 32.7076 21.9794 33.2291 20.6667 33.2291C19.3539 33.2291 18.0949 32.7076 17.1667 31.7793C16.2384 30.8511 15.7169 29.5921 15.7169 28.2793C15.7169 26.9666 16.2384 25.7076 17.1667 24.7793Z" stroke="#F0979E" stroke-width="2" stroke-linecap="round" stroke-linejoin="round"></path></svg>