<svg xmlns="http://www.w3.org/2000/svg" width="40" height="40" viewBox="0 0 40 40" fill="none"><rect width="40" height="40" rx="12" fill="#1BA494" fill-opacity="0.08"></rect><path d="M17.5 20H22.5M20 17.5V22.5M12.5 20C12.5 20.9849 12.694 21.9602 13.0709 22.8701C13.4478 23.7801 14.0003 24.6069 14.6967 25.3033C15.3931 25.9997 16.2199 26.5522 17.1299 26.9291C18.0398 27.306 19.0151 27.5 20 27.5C20.9849 27.5 21.9602 27.306 22.8701 26.9291C23.7801 26.5522 24.6069 25.9997 25.3033 25.3033C25.9997 24.6069 26.5522 23.7801 26.9291 22.8701C27.306 21.9602 27.5 20.9849 27.5 20C27.5 18.0109 26.7098 16.1032 25.3033 14.6967C23.8968 13.2902 21.9891 12.5 20 12.5C18.0109 12.5 16.1032 13.2902 14.6967 14.6967C13.2902 16.1032 12.5 18.0109 12.5 20Z" stroke="#1BA494" stroke-width="1.66667" stroke-linecap="round" stroke-linejoin="round"></path></svg>