<svg xmlns="http://www.w3.org/2000/svg" width="40" height="40" viewBox="0 0 40 40" fill="none"><rect width="40" height="40" rx="12" fill="#1BA494" fill-opacity="0.08"></rect><path d="M17.4999 14.1667H15.8332C15.3912 14.1667 14.9673 14.3423 14.6547 14.6548C14.3422 14.9674 14.1666 15.3913 14.1666 15.8333V25.8333C14.1666 26.2754 14.3422 26.6993 14.6547 27.0118C14.9673 27.3244 15.3912 27.5 15.8332 27.5H24.1666C24.6086 27.5 25.0325 27.3244 25.3451 27.0118C25.6576 26.6993 25.8332 26.2754 25.8332 25.8333V15.8333C25.8332 15.3913 25.6576 14.9674 25.3451 14.6548C25.0325 14.3423 24.6086 14.1667 24.1666 14.1667H22.4999M17.4999 14.1667C17.4999 13.7246 17.6755 13.3007 17.9881 12.9882C18.3006 12.6756 18.7245 12.5 19.1666 12.5H20.8332C21.2753 12.5 21.6992 12.6756 22.0117 12.9882C22.3243 13.3007 22.4999 13.7246 22.4999 14.1667M17.4999 14.1667C17.4999 14.6087 17.6755 15.0326 17.9881 15.3452C18.3006 15.6577 18.7245 15.8333 19.1666 15.8333H20.8332C21.2753 15.8333 21.6992 15.6577 22.0117 15.3452C22.3243 15.0326 22.4999 14.6087 22.4999 14.1667M17.4999 21.6667L19.1666 23.3333L22.4999 20" stroke="#1BA494" stroke-width="1.66667" stroke-linecap="round" stroke-linejoin="round"></path></svg>