<svg xmlns="http://www.w3.org/2000/svg" width="49" height="49" viewBox="0 0 49 49" fill="none"><rect x="0.333496" y="0.279297" width="48" height="48" rx="12" fill="#1BA494" fill-opacity="0.08"></rect><path d="M22.3335 18.2793V21.2793M26.3335 18.2793V21.2793M17.3335 23.2793C17.3335 22.7489 17.5442 22.2402 17.9193 21.8651C18.2944 21.49 18.8031 21.2793 19.3335 21.2793H29.3335C29.8639 21.2793 30.3726 21.49 30.7477 21.8651C31.1228 22.2402 31.3335 22.7489 31.3335 23.2793V31.2793C31.3335 31.8097 31.1228 32.3184 30.7477 32.6935C30.3726 33.0686 29.8639 33.2793 29.3335 33.2793H19.3335C18.8031 33.2793 18.2944 33.0686 17.9193 32.6935C17.5442 32.3184 17.3335 31.8097 17.3335 31.2793V23.2793ZM22.3335 27.2793C22.3335 27.8097 22.5442 28.3184 22.9193 28.6935C23.2944 29.0686 23.8031 29.2793 24.3335 29.2793C24.8639 29.2793 25.3726 29.0686 25.7477 28.6935C26.1228 28.3184 26.3335 27.8097 26.3335 27.2793C26.3335 26.7489 26.1228 26.2402 25.7477 25.8651C25.3726 25.49 24.8639 25.2793 24.3335 25.2793C23.8031 25.2793 23.2944 25.49 22.9193 25.8651C22.5442 26.2402 22.3335 26.7489 22.3335 27.2793ZM21.3335 15.2793H27.3335V18.2793H21.3335V15.2793Z" stroke="#1BA494" stroke-width="1.5" stroke-linecap="round" stroke-linejoin="round"></path></svg>