<svg xmlns="http://www.w3.org/2000/svg" width="237" height="34" viewBox="0 0 237 34" fill="none"><path d="M5.49047 31.7803L7.55403 31.4991V3.94391H1.54683L0.328215 9.48492H0V1.36203H19.7957V9.48492H19.4675L18.296 3.94391H12.6204V31.4991L14.6856 31.7803V32.1542H5.49047V31.7803Z" fill="black"></path><path d="M16.6274 31.7803L17.942 31.4991L25.8226 1.36203H28.4517L36.142 31.4047L37.7848 31.8275V32.1542H29.3387V31.8275L30.6061 31.4991L28.9162 24.6915H22.0691L20.285 31.4991L21.4144 31.7803V32.1542H16.6274V31.7803ZM28.4028 22.4835L25.7283 10.1401L22.5387 22.4835H28.4028Z" fill="black"></path><path d="M64.1944 29.0066C60.35 31.5902 56.1269 32.9056 52.3281 32.9056C46.9318 32.9056 42.8518 30.7919 40.2244 28.0719C38.1121 25.9111 36.471 21.9195 36.471 17.2274C36.471 7.41524 41.3488 0.279297 52.8919 0.279297C55.7533 0.279297 59.4108 1.08098 61.6612 2.48728L62.4152 0.702035H62.6946V9.62323H62.2722L61.3801 4.88053C59.2694 3.56854 56.4552 2.91001 52.8919 2.91001C49.2293 2.91001 45.8512 4.88053 44.3044 7.27713C42.5253 9.94996 42.0069 12.1579 42.0069 16.5688C42.0069 24.4071 45.8512 30.4163 52.7977 30.4163C55.3308 30.4163 57.4415 30.0424 59.1264 29.1498V20.4189L54.1543 19.9962V19.7149H64.1944V29.0066Z" fill="black"></path><path d="M66.3968 31.7803L68.4603 31.4991V2.02056L66.3968 1.68877V1.36203H81.7354V8.40198H81.2187L80.3316 3.70643H73.3852V16.1931H79.9092L80.4209 12.9072H80.8905V21.5488H80.4209L79.9092 18.3067H73.3852V29.8098H80.4209L81.2658 25.2557H81.7825V32.1542H66.3968V31.7803Z" fill="black"></path><path d="M86.2842 23.6558H86.7067C87.0383 26.049 87.5987 27.3644 87.9741 28.0246C88.6793 29.244 90.5072 30.369 92.5708 30.369C95.1528 30.369 97.3106 28.6798 97.3106 25.8166C97.3106 22.9063 95.9018 21.9194 92.5708 20.0432C89.5714 18.3051 89.287 18.2108 87.5516 16.6159C85.8668 15.1152 84.7845 13.2828 84.7845 10.2782C84.7845 4.97469 87.8832 0.84336 93.4158 0.84336C95.247 0.84336 97.1692 1.36209 98.7194 2.43997L99.3741 0.701886H99.6552V9.62308H99.2328L98.2969 4.55196C96.7939 3.47407 95.3413 3.09849 93.4629 3.09849C90.3692 3.09849 88.9133 5.5389 88.9133 8.49634C88.9133 11.218 90.4164 12.2521 91.7259 13.1885C94.4021 15.0209 97.5429 16.3346 99.5172 18.4483C100.921 19.996 101.439 21.4967 101.439 24.1745C101.439 29.3349 98.2969 32.7623 93.2306 32.7623C90.8338 32.7623 89.3358 32.2014 87.693 30.9349L87.0383 33.2793H86.6629L86.2842 23.6558Z" fill="black"></path><path d="M104.92 23.6558H105.342C105.674 26.049 106.234 27.3644 106.609 28.0246C107.315 29.244 109.143 30.369 111.206 30.369C113.788 30.369 115.946 28.6798 115.946 25.8166C115.946 22.9063 114.537 21.9194 111.206 20.0432C108.207 18.3051 107.922 18.2108 106.187 16.6159C104.497 15.1152 103.42 13.2828 103.42 10.2782C103.42 4.97469 106.519 0.84336 112.051 0.84336C113.882 0.84336 115.805 1.36209 117.355 2.43997L118.009 0.701886H118.291V9.62308H117.868L116.932 4.55196C115.429 3.47407 113.977 3.09849 112.098 3.09849C109.005 3.09849 107.549 5.5389 107.549 8.49634C107.549 11.218 109.052 12.2521 110.361 13.1885C113.037 15.0209 116.178 16.3346 118.153 18.4483C119.556 19.996 120.075 21.4967 120.075 24.1745C120.075 29.3349 116.932 32.7623 111.866 32.7623C109.469 32.7623 107.971 32.2014 106.328 30.9349L105.674 33.2793H105.298L104.92 23.6558Z" fill="black"></path><path d="M122.616 31.7803L124.396 31.4991V2.02056L122.427 1.68877V1.36203H131.902C136.077 1.36203 138.705 2.02056 139.646 5.35358C139.972 6.52747 140.11 8.1224 140.11 10.0458C140.11 13.9901 139.08 17.0385 136.172 18.1686C134.716 18.7766 132.418 18.8709 129.838 18.8709H129.51V31.4991L131.526 31.7803V32.1542H122.616V31.7803ZM130.545 16.6158C132.561 16.6158 133.031 16.3834 133.733 15.9606C134.857 15.2583 135.376 12.6276 135.376 10.0458C135.376 6.99736 135.138 6.00873 134.293 4.78937C133.733 3.94391 132.888 3.75528 130.308 3.75528H129.51V16.6158H130.545Z" fill="black"></path><path d="M142.311 31.7803L144.375 31.4991V2.02056L142.311 1.68877V1.36203H151.506V1.68877L149.443 2.02056V31.4991L151.506 31.7803V32.1542H142.311V31.7803Z" fill="black"></path><path d="M154.028 31.7803L156.091 31.4991V2.02056L154.028 1.68877V1.36203H169.368V8.40198H168.849L167.962 3.70643H161.016V16.1931H167.537L168.053 12.9072H168.523V21.5488H168.053L167.537 18.3067H161.016V29.8098H168.053L168.898 25.2557H169.415V32.1542H154.028V31.7803Z" fill="black"></path><path d="M199.631 29.0066C195.783 31.5902 191.565 32.9056 187.765 32.9056C182.37 32.9056 178.288 30.7919 175.661 28.0719C173.549 25.9111 171.908 21.9195 171.908 17.2274C171.908 7.41524 176.785 0.279297 188.325 0.279297C191.19 0.279297 194.847 1.08098 197.098 2.48728L197.847 0.702035H198.131V9.62323H197.709L196.817 4.88053C194.706 3.56854 191.892 2.91001 188.325 2.91001C184.666 2.91001 181.288 4.88053 179.741 7.27713C177.957 9.94996 177.445 12.1579 177.445 16.5688C177.445 24.4071 181.288 30.4163 188.234 30.4163C190.767 30.4163 192.875 30.0424 194.563 29.1498V20.4189L189.591 19.9962V19.7149H199.631V29.0066Z" fill="black"></path><path d="M201.768 31.7803L203.832 31.4991V2.02056L201.768 1.68877V1.36203H217.109V8.40198H216.592L215.703 3.70643H208.757V16.1931H215.281L215.794 12.9072H216.264V21.5488H215.794L215.281 18.3067H208.757V29.8098H215.794L216.639 25.2557H217.156V32.1542H201.768V31.7803Z" fill="black"></path><path d="M220.414 31.7795L222.474 31.4982V2.06016L220.414 1.73174V1.40501H229.739V1.73174L227.722 2.06016V29.718H235.827L236.719 25.265H237V32.1534H220.414V31.7795Z" fill="black"></path></svg>