<svg xmlns="http://www.w3.org/2000/svg" width="206" height="24" viewBox="0 0 206 24" fill="none"><path d="M10.3981 12.9892H0V23.3413H10.3981V12.9892Z" fill="black"></path><path d="M10.3981 0.792626H0V11.1447H10.3981V0.792626Z" fill="black"></path><path d="M201.99 13.7757C201.99 12.9216 202.024 11.4183 201.887 10.4959C201.784 9.81258 201.51 9.23178 200.789 9.23178C200.171 9.23178 199.794 9.57343 199.656 10.1884C199.485 10.9742 199.519 12.4775 199.519 13.4683V13.7757H201.99ZM199.553 17.4998C199.553 19.6522 200.652 20.438 202.265 20.438C203.26 20.438 204.907 19.823 205.696 18.8664V22.1462C204.976 22.8637 202.985 23.8203 200.652 23.8203C197.7 23.8203 195.435 21.8387 195.195 18.2856C195.024 16.1673 194.852 12.375 195.401 10.2226C195.984 7.52352 197.7 6.22523 200.72 6.22523C203.363 6.22523 205.113 7.52352 205.662 10.2226C205.936 11.6575 205.799 15.3473 205.799 16.304V16.4406H199.519V17.4998H199.553Z" fill="black"></path><path d="M154.735 23.5136H150.823L148.078 11.1116L145.367 23.5136H141.42L137.68 0.930352H142.69V1.10118L144.578 14.5281L147.151 0.930352H150.72L153.26 14.5281L155.182 0.930352H158.579L154.735 23.5136Z" fill="black"></path><path d="M163.83 23.8545C160.81 23.8545 158.991 22.6246 158.271 20.028C157.893 18.7297 157.756 16.919 157.756 15.0741C157.756 13.2633 157.859 11.4867 158.271 10.1543C159.026 7.52354 160.913 6.1911 163.83 6.1911C166.644 6.1911 168.669 7.48938 169.355 10.1543C169.698 11.3842 169.767 13.0925 169.767 15.0741C169.767 17.0556 169.664 18.7639 169.355 20.028C168.634 22.6587 166.781 23.8545 163.83 23.8545ZM165.203 15.0741C165.203 12.785 165.1 11.4867 165.031 10.9742C164.86 9.84677 164.516 9.47096 163.761 9.47096C163.041 9.47096 162.732 9.84677 162.526 10.9742C162.423 11.4867 162.354 12.785 162.354 15.0741C162.354 17.3631 162.457 18.6614 162.526 19.1739C162.698 20.3013 163.041 20.6772 163.796 20.6772C164.516 20.6772 164.825 20.3013 165.031 19.1739C165.1 18.6956 165.203 17.3973 165.203 15.0741Z" fill="black"></path><path d="M181.022 7.38688V12.785H178.552L177.968 9.60762C177.762 9.47096 177.35 9.43679 177.213 9.43679C176.046 9.43679 175.703 10.1884 175.635 11.2817C175.532 12.9217 175.497 16.2357 175.635 17.8073C175.772 19.618 176.493 20.438 177.934 20.438C179.032 20.438 180.199 19.7547 181.194 18.5931V22.0438C180.473 22.7612 178.895 23.7862 176.664 23.7862C173.541 23.7862 171.517 21.7363 171.173 18.6614C170.968 16.3723 170.968 13.9808 171.173 11.6234C171.551 8.03603 173.576 6.1911 176.698 6.1911C178.174 6.1911 179.753 6.70357 181.022 7.38688Z" fill="black"></path><path d="M193.822 23.5129H189.258V10.7351C189.258 9.94929 188.812 9.47097 188.126 9.47097C187.714 9.47097 187.337 9.60763 186.993 9.84679V23.5129H182.429V1.44214L186.993 0.314696V7.2844C187.92 6.60109 188.915 6.19111 190.219 6.19111C192.759 6.19111 193.822 7.89937 193.822 10.5301V23.5129Z" fill="black"></path><path d="M40.3566 0.859638H35.7924V4.61781H40.3566V0.859638Z" fill="black"></path><path d="M82.2588 7.35148V12.7496H79.788L79.2046 9.60637C78.9987 9.46971 78.5869 9.43555 78.4496 9.43555C77.2829 9.43555 76.9397 10.1872 76.871 11.2805C76.7681 12.9204 76.7338 16.2344 76.871 17.806C77.0083 19.6168 77.729 20.4026 79.1703 20.4026C80.2684 20.4026 81.4352 19.7193 82.4304 18.5577V22.0084C81.7098 22.7258 80.1312 23.7508 77.9006 23.7508C74.7777 23.7508 72.753 21.735 72.4442 18.626C72.2383 16.3369 72.2383 13.7745 72.4442 11.4171C72.8216 7.82979 74.8463 6.1557 77.9349 6.1557C79.4105 6.18986 80.9891 6.66817 82.2588 7.35148Z" fill="black"></path><path d="M58.3395 20.3343C58.9572 20.3343 59.6779 19.9585 60.2613 19.446V22.4867C59.4034 23.1017 57.9964 23.6483 56.5207 23.6483C54.3588 23.6483 52.6086 22.3842 52.6086 19.2068V6.87317L56.761 3.2175H57.1728V6.49736H59.8838V9.36724H57.1728V19.1043C57.1384 20.1293 57.6875 20.3343 58.3395 20.3343Z" fill="black"></path><path d="M114.036 23.4429H109.472V9.43519H107.927V6.56531H109.472V5.54036C109.472 2.43132 111.153 0.757225 114.036 0.757225C115.065 0.757225 116.266 0.928055 117.296 1.33804V4.31041C116.61 4.10541 115.958 3.90043 115.443 3.90043C114.276 3.90043 113.796 4.44707 113.796 5.54036V6.56531H116.816V9.43519H114.036V23.4429Z" fill="black"></path><path d="M46.6721 23.4432H42.108V10.8362C42.108 9.19626 41.9707 7.82965 41.7305 6.56554H45.4024L45.9171 8.23963C47.0839 6.80469 48.2164 6.32639 49.5891 6.32639C50.2068 6.32639 50.8931 6.49721 51.4765 6.83886V13.0228H49.0057L48.5939 10.3237C47.7359 10.1187 46.7064 10.3237 46.7064 11.7928L46.6721 23.4432Z" fill="black"></path><path d="M40.3566 6.53121H35.7924V23.443H40.3566V6.53121Z" fill="black"></path><path d="M99.9314 23.8874C98.7646 23.8874 97.8038 23.4433 97.0488 22.4525C96.534 21.7692 96.1909 20.6417 96.1909 19.0018C96.1909 17.2935 96.2938 16.1661 96.9458 15.1753C97.8038 13.877 99.4853 13.1596 102.78 13.4671V11.2463C102.78 9.81137 102.093 9.26472 100.858 9.26472C100.515 9.26472 100.137 9.36722 99.8628 9.46972L99.451 12.2371H96.9115V7.55646C98.1469 6.77066 100.069 6.1557 101.716 6.1557C105.045 6.1557 107.138 7.6248 107.138 11.1097V19.1043C107.138 20.3684 107.275 21.735 107.653 23.2383V23.4091H103.947L103.432 22.0767C102.677 23.2041 101.235 23.8874 99.9314 23.8874ZM100.412 18.1477C100.412 20.4026 100.858 20.6076 101.544 20.6076C101.99 20.6076 102.814 20.1634 102.814 19.2068V15.9269C102.437 15.8244 102.128 15.8244 101.922 15.8244C100.858 15.8586 100.412 16.3028 100.412 18.1477Z" fill="black"></path><path d="M31.126 23.4428H27.2482L24.4685 11.0409L21.7918 23.4428H17.8453L14.1047 0.859638H19.115V0.996297L20.9682 14.4574L23.5419 0.859638H27.1109L29.6504 14.4574L31.5721 0.859638H34.9352L31.126 23.4428Z" fill="black"></path><path d="M130.542 23.6141C129.272 23.6141 127.522 23.2041 126.355 22.3842V17.601H128.758L129.204 20.4709C129.581 20.5734 129.993 20.6076 130.233 20.6076C131.469 20.6076 132.224 19.8901 132.224 19.036C132.224 17.7377 130.92 17.1911 129.066 15.9269C127.316 14.7653 126.115 13.1254 126.115 11.0413C126.115 8.10311 128.174 6.1557 131.4 6.1557C133.047 6.1557 134.454 6.66817 135.552 7.24898V11.8954H133.116L132.738 9.29889C131.503 8.95724 130.199 9.29889 130.199 10.6997C130.199 11.793 131.606 12.5104 133.047 13.3987C134.9 14.5603 136.342 16.0294 136.342 18.7627C136.376 21.2909 134.145 23.6141 130.542 23.6141Z" fill="black"></path><path d="M65.5464 23.6141C64.2767 23.6141 62.5265 23.2041 61.3598 22.3842V17.601H63.762L64.2081 20.4709C64.5856 20.5734 64.9974 20.6076 65.2376 20.6076C66.473 20.6076 67.228 19.8901 67.228 19.036C67.228 17.7377 65.9239 17.1911 64.0708 15.9269C62.3206 14.7653 61.1195 13.1254 61.1195 11.0413C61.1195 8.10311 63.1786 6.1557 66.4044 6.1557C68.0516 6.1557 69.4586 6.66817 70.5567 7.24898V11.8954H68.1202L67.7427 9.29889C66.5073 8.95724 65.2033 9.29889 65.2033 10.6997C65.2033 11.793 66.6103 12.5104 68.0516 13.3987C69.9047 14.5603 71.346 16.0294 71.346 18.7627C71.346 21.2909 69.1497 23.6141 65.5464 23.6141Z" fill="black"></path><path d="M94.9903 23.4433H90.4604V10.6997C90.4604 9.91389 90.0143 9.43557 89.328 9.43557C88.9162 9.43557 88.5387 9.57223 88.1955 9.81139V23.4092H83.6314V1.40674L88.1955 0.279297V7.249C89.0878 6.56569 90.1173 6.15572 91.387 6.15572C93.9265 6.15572 94.9903 7.86397 94.9903 10.4605V23.4433Z" fill="black"></path><path d="M123.439 20.3343C124.057 20.3343 124.778 19.9585 125.361 19.446V22.4867C124.503 23.1017 123.096 23.6483 121.62 23.6483C119.458 23.6483 117.708 22.3842 117.708 19.2068V6.87317L121.861 3.2175H122.272V6.49736H124.983V9.36724H122.272V19.1043C122.272 20.1293 122.787 20.3343 123.439 20.3343Z" fill="black"></path></svg>